<svg
  xmlns="http://www.w3.org/2000/svg"
  viewBox="0 0 64 64"
  width="64"
  height="64"
  fill="none"
  stroke="currentColor"
  stroke-width="2"
  stroke-linecap="round"
  stroke-linejoin="round"
>
  <!-- Feather -->
  <path
    d="M20 44c10-10 20-20 30-30 4-4 8-6 10-4s0 6-4 10c-10 10-20 20-30 30-4 4-8 6-10 4s0-6 4-10z"
    fill="#4CAF50"
    stroke="#388E3C"
  />
  <path
    d="M30 34c-2 2-4 4-6 6M40 24c-2 2-4 4-6 6"
    stroke="#2E7D32"
  />

  <!-- Sparkles -->
  <path
    d="M50 10l2 4 4 2-4 2-2 4-2-4-4-2 4-2 2-4zM10 50l1 2 2 1-2 1-1 2-1-2-2-1 2-1 1-2z"
    fill="#FFC107"
    stroke="#FFA000"
  />
</svg>